<svg version="1.1" id="Layer_1" xmlns="http://www.w3.org/2000/svg" xmlns:xlink="http://www.w3.org/1999/xlink" x="0px" y="0px"
	 width="100%" viewBox="0 0 768 768" enable-background="new 0 0 768 768" xml:space="preserve">
<path fill="#FFFEFE" opacity="1.000000" stroke="none" 
	d="
M0.999996,424.000000 
	C1.000000,398.312439 1.000000,372.624878 1.372929,346.771240 
	C2.157743,345.929871 2.840263,345.292114 2.939909,344.573486 
	C4.011532,336.845276 4.441348,328.983826 6.105950,321.390991 
	C10.061184,303.349823 13.833718,285.211151 19.057264,267.518463 
	C27.540995,238.783218 40.339798,211.868423 55.919373,186.235657 
	C69.793404,163.408981 85.561798,142.045288 103.941757,122.690750 
	C112.375793,113.809494 121.118729,105.121689 130.474609,97.240036 
	C143.372391,86.374580 156.629517,75.857521 170.375504,66.096451 
	C188.487885,53.234798 208.068756,42.849262 228.406433,33.792706 
	C248.679626,24.764853 269.400604,17.017164 291.002808,12.184103 
	C308.492126,8.271225 326.351593,6.017101 344.029541,2.928146 
	C344.775879,2.797735 345.347168,1.665517 346.000000,1.000000 
	C371.687561,1.000000 397.375122,1.000000 423.228760,1.372923 
	C424.069946,2.157726 424.707581,2.840268 425.426025,2.939887 
	C433.154236,4.011508 441.015717,4.441351 448.608551,6.105916 
	C466.649780,10.061086 484.788544,13.833402 502.481201,19.057047 
	C531.216431,27.540966 558.131287,40.339603 583.764099,55.919296 
	C606.590759,69.793373 627.954468,85.561745 647.309021,103.941605 
	C656.190308,112.375641 664.878113,121.118599 672.759766,130.474503 
	C683.625305,143.372253 694.142456,156.629288 703.903503,170.375351 
	C716.765076,188.487808 727.150757,208.068680 736.207275,228.406433 
	C745.235107,248.679688 752.982849,269.400635 757.815918,291.002869 
	C761.728882,308.492157 763.982849,326.351593 767.071838,344.029510 
	C767.202271,344.775848 768.334473,345.347137 769.000000,346.000000 
	C769.000000,371.687561 769.000000,397.375122 768.627075,423.228760 
	C767.842285,424.070129 767.159790,424.707916 767.060120,425.426514 
	C765.988464,433.154724 765.558594,441.016205 763.893982,448.609009 
	C759.938782,466.650208 756.166382,484.788879 750.942810,502.481537 
	C742.458984,531.216736 729.660217,558.131592 714.080566,583.764282 
	C700.206543,606.591003 684.438171,627.954712 666.058167,647.309265 
	C657.624207,656.190552 648.881287,664.878418 639.525391,672.760132 
	C626.627625,683.625549 613.370422,694.142395 599.624451,703.903503 
	C581.512024,716.765198 561.931213,727.150757 541.593506,736.207336 
	C521.320312,745.235168 500.599365,752.982849 478.997131,757.815857 
	C461.507843,761.728760 443.648407,763.982849 425.970459,767.071777 
	C425.224121,767.202209 424.652832,768.334473 424.000000,769.000000 
	C398.312439,769.000000 372.624878,769.000000 346.771240,768.627075 
	C345.930023,767.842285 345.292358,767.159729 344.573883,767.060120 
	C336.845673,765.988464 328.984222,765.558655 321.391418,763.894043 
	C303.350189,759.938965 285.211456,756.166626 267.518829,750.942932 
	C238.783585,742.459045 211.868698,729.660400 186.235840,714.080750 
	C163.409225,700.206604 142.045471,684.438293 122.690857,666.058411 
	C113.809570,657.624390 105.121826,648.881348 97.240128,639.525513 
	C86.374664,626.627747 75.857475,613.370728 66.096489,599.624634 
	C53.235004,581.512146 42.849262,561.931396 33.792725,541.593689 
	C24.764891,521.320435 17.017202,500.599457 12.184119,478.997253 
	C8.271215,461.507904 6.017100,443.648438 2.928134,425.970459 
	C2.797724,425.224121 1.665509,424.652832 0.999996,424.000000 
M682.392761,466.893372 
	C670.070557,493.535370 653.214417,516.933350 631.132080,536.254211 
	C579.034546,581.836792 518.420349,599.379028 450.370605,587.418640 
	C391.505341,577.072388 345.288910,545.843811 311.265991,496.648407 
	C310.509125,495.554047 309.158142,494.141937 308.062775,494.123016 
	C297.160034,493.934814 286.252747,494.008942 275.095428,494.008942 
	C318.832214,577.807861 423.906738,641.848511 543.055664,614.802246 
	C655.355103,589.310730 737.230896,486.756500 731.746094,366.183990 
	C726.300659,246.477386 634.434204,148.190033 514.366272,135.329285 
	C402.647736,123.362862 310.139038,189.168961 273.730957,264.001678 
	C284.148163,264.001678 294.471405,264.096222 304.788788,263.894043 
	C306.243164,263.865540 308.085449,262.721649 309.042389,261.528137 
	C316.736023,251.932632 323.528625,241.507004 331.956757,232.625854 
	C381.135468,180.803711 441.701111,158.280273 512.638000,165.465042 
	C559.267517,170.187851 599.999634,189.352112 634.134155,221.538940 
	C677.104370,262.057281 699.629089,312.172363 701.860168,371.181091 
	C703.113098,404.318451 696.372803,436.007507 682.392761,466.893372 
M465.856598,566.751770 
	C480.819580,566.768066 495.947693,568.226074 510.715088,566.534729 
	C558.211365,561.095093 598.017517,539.996887 630.327271,504.700928 
	C681.569580,448.722656 693.524048,362.681549 660.133606,294.571716 
	C625.354614,223.629440 550.364807,180.228760 470.912018,187.876205 
	C423.386169,192.450638 383.268341,212.300293 350.176300,246.511292 
	C345.075073,251.784988 340.573425,257.638611 335.128906,264.001923 
	C347.670013,264.001923 358.816833,263.879517 369.957977,264.075653 
	C373.353485,264.135437 375.772156,263.195160 378.331177,260.869202 
	C419.456879,223.488922 467.615662,209.106873 521.925964,220.728546 
	C608.511475,239.256668 661.869019,320.687683 646.065063,407.903687 
	C633.069702,479.620544 568.779785,535.375610 495.984833,537.874390 
	C452.263763,539.375183 413.876984,525.789368 381.001495,496.747528 
	C379.228729,495.181519 376.352631,494.181915 373.958710,494.119232 
	C363.300446,493.840057 352.630707,493.986969 341.965179,494.013824 
	C340.787323,494.016785 339.609985,494.237000 337.764038,494.424255 
	C342.484161,499.773438 346.482849,504.696411 350.883362,509.229187 
	C382.258118,541.546936 420.297089,560.687622 465.856598,566.751770 
M332.065826,382.438690 
	C319.994263,377.134888 307.922668,371.831085 295.840759,366.522736 
	C295.421326,367.192291 295.128845,367.592163 294.907959,368.028259 
	C294.607849,368.620697 294.353821,369.237183 294.094879,369.849609 
	C283.717712,394.390198 266.939941,411.510620 239.553925,415.457916 
	C228.320847,417.076965 216.847977,417.350098 206.784058,410.405792 
	C194.489960,401.922607 190.296417,389.131531 190.245377,375.239349 
	C190.154083,350.391754 203.651398,333.317322 224.419113,321.711670 
	C242.292389,311.723572 260.190582,311.138092 277.036743,324.676910 
	C278.666138,325.986420 280.562317,326.963989 282.334656,328.095673 
	C281.824921,327.405518 281.315186,326.715363 280.805450,326.025208 
	C291.919617,315.858276 303.033783,305.691376 314.787415,294.939484 
	C308.385040,291.364868 303.035950,287.475250 297.071075,285.200226 
	C266.986725,273.725922 237.046738,273.842072 207.282349,286.923950 
	C163.418030,306.202972 136.491516,352.776306 142.986084,398.680969 
	C146.559738,423.940155 171.288605,449.846924 196.608871,452.604004 
	C212.572098,454.342224 228.868454,453.826874 244.966324,453.152283 
	C252.056290,452.855164 259.258240,450.254425 266.003906,447.649658 
	C286.318390,439.805389 303.042450,426.852539 316.705658,409.982849 
	C318.884216,407.293060 320.722382,407.106567 323.866669,408.102570 
	C331.598328,410.551697 339.392700,413.197632 347.367371,414.390686 
	C358.883636,416.113678 370.341248,415.263214 380.485901,408.414581 
	C386.563629,404.311462 386.492767,400.349121 379.925842,396.974670 
	C375.821716,394.865784 371.369629,393.298065 366.920044,392.024261 
	C355.586121,388.779633 344.165924,385.836365 332.065826,382.438690 
M476.501526,383.838745 
	C486.664337,383.733398 496.830902,383.763641 506.988770,383.481171 
	C515.635010,383.240753 524.270447,382.624847 532.912109,382.205414 
	C537.193115,381.997620 539.548279,379.955383 540.106201,375.560577 
	C541.131897,367.481171 542.337891,359.422882 543.592957,351.375153 
	C544.094910,348.157135 543.010925,346.842834 539.697266,346.739044 
	C524.550476,346.264496 509.412262,345.480774 494.263519,345.122772 
	C482.974091,344.855896 471.673309,345.070160 460.119293,345.070160 
	C460.631989,339.518219 460.895508,334.699463 461.555756,329.935699 
	C462.826721,320.765289 465.034515,318.431732 474.333221,317.977875 
	C489.633484,317.231049 504.955750,316.871826 520.273071,316.560944 
	C530.372375,316.355988 540.479126,316.522217 550.893616,316.522217 
	C553.470154,302.783630 555.839661,290.149139 558.231628,277.394836 
	C510.526367,277.394836 463.684082,277.394836 416.841797,277.394836 
	C428.480621,283.566071 440.557190,288.816803 448.112396,300.531616 
	C438.767395,310.537689 429.415619,320.259033 420.458344,330.331268 
	C417.979980,333.118103 416.231171,333.456238 412.927551,331.972931 
	C403.100525,327.560608 393.306763,322.870331 383.077820,319.615295 
	C373.189972,316.468811 362.738617,315.869446 352.575836,319.291656 
	C348.825623,320.554535 345.383362,322.853668 345.317078,327.264465 
	C345.254395,331.431854 348.772827,333.133179 352.166656,334.195892 
	C359.926453,336.625824 367.703247,339.048187 375.583099,341.038422 
	C390.740875,344.866882 406.015930,348.243439 419.431976,356.894623 
	C431.722473,364.820007 437.751617,376.117706 436.823608,390.608307 
	C435.291046,414.537659 422.366150,431.473480 402.657654,443.827637 
	C398.116486,446.674255 393.205017,448.930237 388.463928,451.458008 
	C388.536896,451.700073 388.609863,451.942139 388.682831,452.184204 
	C434.378601,452.184204 480.074341,452.184204 525.825195,452.184204 
	C528.095581,439.762939 530.327759,427.550720 532.626770,414.972687 
	C504.082001,414.972687 475.628357,414.972687 446.555115,414.972687 
	C448.155518,405.712708 449.527863,396.869781 451.364929,388.124512 
	C451.637482,386.826965 454.024414,385.228455 455.565613,385.071686 
	C462.184509,384.398529 468.852936,384.211945 476.501526,383.838745 
M106.449234,436.997223 
	C82.967758,436.997223 59.486176,436.968109 36.005070,437.060272 
	C34.376904,437.066681 31.914194,437.475067 31.272181,438.551178 
	C28.599577,443.030884 26.475777,447.838013 23.711828,453.409668 
	C60.046574,453.409668 95.329445,453.409668 131.496078,453.409668 
	C128.275162,449.817780 125.301483,447.093750 123.054214,443.864227 
	C119.155159,438.260986 114.199677,435.731201 106.449234,436.997223 
M105.354347,407.347076 
	C104.490303,402.359558 100.823524,401.112854 96.549408,401.021851 
	C81.899956,400.709961 67.248436,400.467926 52.596489,400.348633 
	C51.362965,400.338593 49.534988,401.110260 48.982594,402.085052 
	C46.490791,406.482605 44.359077,411.084167 41.863293,416.081360 
	C55.004604,416.081360 67.327400,416.190918 79.646965,416.038818 
	C86.626610,415.952667 93.607338,415.534790 100.575340,415.079254 
	C104.871216,414.798401 107.008759,412.617828 105.354347,407.347076 
M115.513489,287.997620 
	C111.854637,287.997986 108.190292,287.886017 104.540154,288.064484 
	C103.386948,288.120850 101.666878,288.644318 101.237747,289.482269 
	C98.545448,294.739532 96.144577,300.146057 93.543091,305.726746 
	C106.839943,305.726746 119.468880,306.269104 132.028152,305.566467 
	C143.434357,304.928375 149.139923,295.155609 157.866409,287.997620 
	C143.112015,287.997620 129.810196,287.997620 115.513489,287.997620 
M69.436562,364.446930 
	C62.110222,366.286224 62.453629,373.064545 59.447968,378.758087 
	C73.209152,378.758087 85.947639,379.019867 98.665771,378.625366 
	C103.552185,378.473816 106.300926,374.253937 105.986900,369.082947 
	C105.676201,363.966675 101.322983,364.298981 98.157402,364.205170 
	C88.869408,363.929993 79.565285,364.198944 69.436562,364.446930 
M115.440392,327.788818 
	C108.637276,327.574677 101.833168,327.158020 95.031265,327.191437 
	C83.361977,327.248749 80.607697,329.715790 77.854378,342.832977 
	C87.016518,342.832977 95.934082,343.026703 104.838989,342.774261 
	C112.547531,342.555725 117.753792,337.275665 118.263725,329.592102 
	C118.299026,329.060242 116.955086,328.436798 115.440392,327.788818 
M170.354034,482.175964 
	C171.415771,483.449829 172.477509,484.723724 173.539246,485.997589 
	C174.408249,484.701691 175.480576,483.496704 176.108093,482.092865 
	C177.982269,477.899963 179.682098,473.629120 181.450027,469.388733 
	C182.223633,474.342316 182.140594,478.987000 182.302048,483.623138 
	C182.330292,484.434509 183.386032,485.210144 183.967255,486.002289 
	C184.570084,485.231964 185.682587,484.470734 185.696503,483.689911 
	C185.829193,476.249268 185.775711,468.805328 185.775711,461.362335 
	C185.282837,461.009949 184.789963,460.657593 184.297104,460.305206 
	C182.901291,461.566010 180.939545,462.565063 180.213165,464.135498 
	C177.800751,469.351288 175.832626,474.772614 173.303436,481.091125 
	C170.793961,474.926483 168.482529,469.671326 166.531616,464.285614 
	C165.484039,461.393646 164.067673,460.256042 160.876465,461.567963 
	C160.876465,468.783875 160.815170,475.918030 160.946747,483.048584 
	C160.965164,484.046112 161.930481,485.026154 162.457504,486.014282 
	C163.012802,485.054626 164.014053,484.110443 164.047943,483.132690 
	C164.214294,478.334045 164.123413,473.526489 164.123413,468.722076 
	C164.362427,468.707916 164.601440,468.693756 164.840454,468.679596 
	C166.589310,472.937714 168.338181,477.195831 170.354034,482.175964 
M400.899078,474.485535 
	C400.898834,471.157104 401.045349,467.818634 400.819611,464.505585 
	C400.739410,463.329010 399.753967,462.214172 399.181763,461.071106 
	C398.580444,462.190735 397.509277,463.290222 397.460266,464.433563 
	C397.261841,469.063629 397.377838,473.707184 397.377838,478.345764 
	C394.104675,475.108673 392.205139,471.575592 389.729401,468.507538 
	C387.554291,465.812073 387.052002,460.898132 381.593414,461.127258 
	C381.593414,468.833527 381.514496,475.984680 381.678192,483.130249 
	C381.702881,484.206604 382.860168,485.257019 383.493530,486.319427 
	C384.047699,486.081573 384.601837,485.843689 385.156006,485.605804 
	C385.156006,479.930054 385.156006,474.254272 385.156006,467.483978 
	C388.009277,471.807312 389.905640,475.348053 392.449280,478.338165 
	C394.769348,481.065521 394.931549,486.574646 400.899048,485.805573 
	C400.899048,482.103577 400.899048,478.786591 400.899078,474.485535 
M474.647949,486.010864 
	C475.403137,485.070801 476.657990,484.204956 476.810883,483.175415 
	C477.143311,480.937103 476.913452,478.615295 476.913452,476.515961 
	C481.392517,474.890961 483.266144,476.857208 484.984772,480.298828 
	C486.145721,482.623718 486.294037,487.015533 491.372498,485.638916 
	C489.520081,482.115448 487.776398,478.798859 485.930634,475.288055 
	C490.366547,473.154510 491.290375,469.519073 489.906067,465.536865 
	C488.562622,461.672119 484.954498,461.010712 481.278137,461.004974 
	C478.821930,461.001099 476.365692,461.004211 473.818634,461.004211 
	C473.818634,469.529907 473.818634,477.606537 474.647949,486.010864 
M218.232132,486.059113 
	C227.000412,485.085876 230.688889,479.689941 229.104767,470.153320 
	C227.846130,462.576172 221.725296,459.593658 211.532822,461.650482 
	C211.532822,469.693878 211.532822,477.751068 211.532822,486.061310 
	C213.691772,486.061310 215.514435,486.061310 218.232132,486.059113 
M354.173279,485.968933 
	C352.851837,482.475830 351.530396,478.982727 350.129211,475.278870 
	C353.403259,473.108612 355.263794,469.902771 353.646912,465.695526 
	C351.975983,461.347565 348.068787,460.970367 344.080872,461.019135 
	C341.824005,461.046753 339.566528,461.024139 337.196289,461.024139 
	C337.196289,469.670441 337.196289,477.619873 337.196289,485.851257 
	C338.135193,485.851257 339.550232,485.977295 339.578461,485.832703 
	C340.186981,482.713989 340.640564,479.565063 341.124847,476.417206 
	C346.206787,475.761322 346.047607,475.856171 348.419708,479.837036 
	C349.764038,482.093170 351.731964,483.977722 354.173279,485.968933 
M448.393005,473.514252 
	C449.092743,481.336517 451.328949,485.090698 456.067505,486.048981 
	C459.890259,486.822052 463.615967,486.323456 465.957855,482.936890 
	C469.557739,477.730988 469.411377,471.969635 467.189301,466.267120 
	C465.777130,462.643188 462.809845,460.966461 458.979828,460.823700 
	C452.743713,460.591217 449.583923,464.155273 448.393005,473.514252 
M427.357330,461.948212 
	C427.304382,469.110504 427.198120,476.273315 427.268005,483.434418 
	C427.276459,484.299561 428.237152,485.155426 428.756500,486.015594 
	C429.438293,485.151031 430.587463,484.346893 430.708618,483.409821 
	C430.997711,481.173828 430.801849,478.875122 430.801849,476.203766 
	C433.599548,476.203766 435.760742,476.341217 437.898468,476.175751 
	C442.644806,475.808350 445.118805,473.306183 445.203644,469.014282 
	C445.290100,464.639343 442.555603,461.463745 437.925598,461.124359 
	C434.623474,460.882233 431.281372,461.185242 427.357330,461.948212 
M206.934753,463.427429 
	C206.444626,462.625061 205.981491,461.146942 205.460144,461.126099 
	C200.883362,460.943298 196.296204,461.020294 191.702484,461.020294 
	C191.702484,469.736847 191.702484,477.781647 191.702484,485.672516 
	C197.114288,485.672516 202.141144,485.672516 207.167984,485.672516 
	C207.236267,485.066010 207.304535,484.459503 207.372818,483.852966 
	C203.364120,483.498962 199.355423,483.144958 195.256348,482.782990 
	C195.256348,480.071655 195.256348,477.512238 195.256348,475.107819 
	C198.969635,474.679321 202.335236,474.290955 205.700821,473.902588 
	C205.616592,473.236755 205.532349,472.570953 205.448120,471.905121 
	C202.065231,471.905121 198.682343,471.905121 195.122452,471.905121 
	C195.122452,469.037323 195.122452,466.776917 195.122452,464.673309 
	C195.440186,464.410400 195.565643,464.215210 195.696976,464.211212 
	C199.178574,464.104706 202.660797,464.017975 206.934753,463.427429 
M421.602570,463.991608 
	C418.434448,462.974640 415.174927,460.981598 412.128784,461.266968 
	C409.915283,461.474365 406.854889,464.408325 406.283936,466.661713 
	C405.826843,468.465729 408.126709,471.551147 409.979889,473.188660 
	C411.726868,474.732269 414.671051,474.836456 416.738312,476.132507 
	C418.061890,476.962341 419.654907,478.941345 419.472748,480.157288 
	C419.284363,481.414673 417.015991,483.351746 415.798737,483.252869 
	C413.423523,483.059937 411.109589,481.737366 408.844879,480.716980 
	C407.709473,480.205414 406.738129,479.329834 404.671936,477.924896 
	C406.777557,484.926483 410.537170,487.458893 416.513000,485.968781 
	C418.947693,485.361633 421.809387,483.049591 422.777649,480.786316 
	C424.199585,477.462646 421.752106,474.801636 418.566589,473.379150 
	C416.299316,472.366730 413.739319,471.907715 411.648712,470.642151 
	C410.486633,469.938660 409.232697,467.934845 409.454498,466.796600 
	C409.686615,465.605560 411.723724,463.836548 412.819336,463.939728 
	C415.005646,464.145569 417.111755,465.405121 419.202698,466.337708 
	C420.267853,466.812775 421.228424,467.522278 422.236267,468.125824 
	C422.173828,466.963776 422.111389,465.801758 421.602570,463.991608 
M280.427002,470.944305 
	C279.483490,468.471527 278.671753,465.935699 277.533966,463.555817 
	C277.054230,462.552429 275.886810,461.877838 275.031952,461.053741 
	C274.308990,461.821625 273.274658,462.465698 272.912262,463.376953 
	C269.994659,470.713654 267.203644,478.100677 264.373932,485.472321 
	C264.799469,485.809814 265.225006,486.147339 265.650574,486.484833 
	C266.703735,485.351379 268.402893,484.359009 268.687073,483.057617 
	C269.489807,479.382019 271.972168,479.481964 274.726410,479.610321 
	C277.577209,479.743195 280.782745,478.757294 281.777771,483.079224 
	C282.076355,484.376221 283.759918,485.354309 284.808990,486.478516 
	C285.190979,486.149628 285.572998,485.820740 285.954987,485.491852 
	C284.223267,480.876099 282.491516,476.260315 280.427002,470.944305 
M367.506348,479.618683 
	C370.781067,479.221985 373.285370,479.775208 374.098541,483.695251 
	C374.317780,484.752167 376.095062,485.485901 377.157166,486.368011 
	C375.256470,478.053406 372.528168,470.765656 369.626923,463.547363 
	C369.222412,462.540894 368.059662,461.698853 367.045044,461.169922 
	C366.768158,461.025543 365.427826,462.170929 365.126404,462.940216 
	C362.192749,470.427887 359.376129,477.961395 356.526184,485.481873 
	C356.994080,485.814789 357.462006,486.147705 357.929932,486.480621 
	C358.885345,485.418030 360.405518,484.486572 360.688629,483.267822 
	C361.486298,479.833527 363.648956,479.239563 367.506348,479.618683 
M252.557358,483.581482 
	C248.423737,483.249023 246.450012,480.362274 246.643570,476.872620 
	C246.869415,472.800720 247.520782,468.327454 249.504791,464.908905 
	C251.172623,462.035156 255.945435,463.541809 258.162689,466.759827 
	C258.892731,467.819366 260.170990,468.501160 261.198578,469.355682 
	C261.263428,464.134247 259.008698,461.407654 254.590576,460.913422 
	C250.515182,460.457581 246.837814,461.326782 244.802322,465.243713 
	C242.037186,470.564697 241.965179,476.180389 244.556458,481.522217 
	C246.761353,486.067566 250.976532,487.018555 255.594666,486.013611 
	C259.583191,485.145691 261.601776,482.479034 262.095398,476.896240 
	C260.151367,478.480469 259.237854,479.272339 258.275055,479.998749 
	C256.669281,481.210266 255.031967,482.379944 252.557358,483.581482 
M324.465485,460.987701 
	C321.058777,460.987701 317.652100,460.987701 314.245392,460.987701 
	C314.127563,461.679565 314.009735,462.371429 313.891907,463.063293 
	C316.525299,463.561859 319.158691,464.060394 322.065338,464.610687 
	C322.065338,470.443756 321.966522,476.248779 322.139313,482.045685 
	C322.179291,483.386932 323.147491,484.700500 323.688568,486.026825 
	C324.350830,484.636993 325.533173,483.266174 325.584747,481.854034 
	C325.800018,475.960602 325.675415,470.054749 325.675415,464.465759 
	C328.930908,464.016022 331.327881,463.684906 333.724854,463.353760 
	C333.695557,462.565063 333.666260,461.776398 333.636963,460.987701 
	C330.899994,460.987701 328.163025,460.987701 324.465485,460.987701 
M289.303314,482.232605 
	C289.761414,483.487701 290.153564,485.798767 290.687927,485.832153 
	C295.301910,486.120117 299.941498,485.997864 304.573456,485.997864 
	C304.615662,485.214722 304.657867,484.431580 304.700073,483.648438 
	C300.934692,483.384827 297.169312,483.121185 292.946167,482.825500 
	C292.946167,476.574860 293.036682,470.476715 292.864960,464.385956 
	C292.833038,463.253021 291.746338,462.149811 291.146393,461.032898 
	C290.532440,462.145172 289.424683,463.241394 289.387939,464.372437 
	C289.204926,470.005280 289.303619,475.647339 289.303314,482.232605 
M494.732300,461.039581 
	C493.756897,461.577576 492.781494,462.115601 491.806091,462.653595 
	C492.723907,463.089050 493.603882,463.743591 494.568146,463.910095 
	C496.131104,464.179962 497.749329,464.129608 499.666565,464.231598 
	C499.666565,470.755463 499.594055,476.890289 499.739227,483.019989 
	C499.762939,484.020660 500.747620,484.998596 501.288147,485.987030 
	C501.845551,485.020050 502.862640,484.063812 502.885529,483.084381 
	C503.032104,476.813934 502.960358,470.538422 502.960358,464.241425 
	C505.968597,463.996185 508.450500,463.793884 510.932373,463.591553 
	C510.954712,462.895081 510.977051,462.198608 510.999420,461.502136 
	C505.998260,460.499298 500.779663,461.290497 494.732300,461.039581 
M237.896378,484.994629 
	C237.896378,477.095001 237.896378,469.195374 237.896378,461.295746 
	C237.441162,461.087463 236.985962,460.879150 236.530746,460.670868 
	C235.832748,461.666107 234.558258,462.645416 234.530273,463.659149 
	C234.347977,470.263916 234.331390,476.879974 234.570908,483.481049 
	C234.600235,484.289337 236.476059,485.030640 237.896378,484.994629 
z"/>
<path fill="#000000" opacity="1.000000" stroke="none" 
	d="
M345.531342,1.000000 
	C345.347168,1.665517 344.775879,2.797735 344.029541,2.928146 
	C326.351593,6.017101 308.492126,8.271225 291.002808,12.184103 
	C269.400604,17.017164 248.679626,24.764853 228.406433,33.792706 
	C208.068756,42.849262 188.487885,53.234798 170.375504,66.096451 
	C156.629517,75.857521 143.372391,86.374580 130.474609,97.240036 
	C121.118729,105.121689 112.375793,113.809494 103.941757,122.690750 
	C85.561798,142.045288 69.793404,163.408981 55.919373,186.235657 
	C40.339798,211.868423 27.540995,238.783218 19.057264,267.518463 
	C13.833718,285.211151 10.061184,303.349823 6.105950,321.390991 
	C4.441348,328.983826 4.011532,336.845276 2.939909,344.573486 
	C2.840263,345.292114 2.157743,345.929871 1.372929,346.302612 
	C1.000000,231.072937 1.000000,116.145866 1.000000,1.000000 
	C115.687469,1.000000 230.375076,1.000000 345.531342,1.000000 
z"/>
<path fill="#000000" opacity="1.000000" stroke="none" 
	d="
M769.000000,345.531342 
	C768.334473,345.347137 767.202271,344.775848 767.071838,344.029510 
	C763.982849,326.351593 761.728882,308.492157 757.815918,291.002869 
	C752.982849,269.400635 745.235107,248.679688 736.207275,228.406433 
	C727.150757,208.068680 716.765076,188.487808 703.903503,170.375351 
	C694.142456,156.629288 683.625305,143.372253 672.759766,130.474503 
	C664.878113,121.118599 656.190308,112.375641 647.309021,103.941605 
	C627.954468,85.561745 606.590759,69.793373 583.764099,55.919296 
	C558.131287,40.339603 531.216431,27.540966 502.481201,19.057047 
	C484.788544,13.833402 466.649780,10.061086 448.608551,6.105916 
	C441.015717,4.441351 433.154236,4.011508 425.426025,2.939887 
	C424.707581,2.840268 424.069946,2.157726 423.697388,1.372923 
	C538.927063,1.000000 653.854126,1.000000 769.000000,1.000000 
	C769.000000,115.687469 769.000000,230.375076 769.000000,345.531342 
z"/>
<path fill="#000000" opacity="1.000000" stroke="none" 
	d="
M0.999996,424.468658 
	C1.665509,424.652832 2.797724,425.224121 2.928134,425.970459 
	C6.017100,443.648438 8.271215,461.507904 12.184119,478.997253 
	C17.017202,500.599457 24.764891,521.320435 33.792725,541.593689 
	C42.849262,561.931396 53.235004,581.512146 66.096489,599.624634 
	C75.857475,613.370728 86.374664,626.627747 97.240128,639.525513 
	C105.121826,648.881348 113.809570,657.624390 122.690857,666.058411 
	C142.045471,684.438293 163.409225,700.206604 186.235840,714.080750 
	C211.868698,729.660400 238.783585,742.459045 267.518829,750.942932 
	C285.211456,756.166626 303.350189,759.938965 321.391418,763.894043 
	C328.984222,765.558655 336.845673,765.988464 344.573883,767.060120 
	C345.292358,767.159729 345.930023,767.842285 346.302612,768.627075 
	C231.072937,769.000000 116.145866,769.000000 1.000000,769.000000 
	C1.000000,654.312561 1.000000,539.624939 0.999996,424.468658 
z"/>
<path fill="#000000" opacity="1.000000" stroke="none" 
	d="
M424.468658,769.000000 
	C424.652832,768.334473 425.224121,767.202209 425.970459,767.071777 
	C443.648407,763.982849 461.507843,761.728760 478.997131,757.815857 
	C500.599365,752.982849 521.320312,745.235168 541.593506,736.207336 
	C561.931213,727.150757 581.512024,716.765198 599.624451,703.903503 
	C613.370422,694.142395 626.627625,683.625549 639.525391,672.760132 
	C648.881287,664.878418 657.624207,656.190552 666.058167,647.309265 
	C684.438171,627.954712 700.206543,606.591003 714.080566,583.764282 
	C729.660217,558.131592 742.458984,531.216736 750.942810,502.481537 
	C756.166382,484.788879 759.938782,466.650208 763.893982,448.609009 
	C765.558594,441.016205 765.988464,433.154724 767.060120,425.426514 
	C767.159790,424.707916 767.842285,424.070129 768.627075,423.697418 
	C769.000000,538.927063 769.000000,653.854126 769.000000,769.000000 
	C654.312561,769.000000 539.624939,769.000000 424.468658,769.000000 
z"/>
<path fill="#C7230B" opacity="1.000000" stroke="none" 
	d="
M682.591553,466.570160 
	C696.372803,436.007507 703.113098,404.318451 701.860168,371.181091 
	C699.629089,312.172363 677.104370,262.057281 634.134155,221.538940 
	C599.999634,189.352112 559.267517,170.187851 512.638000,165.465042 
	C441.701111,158.280273 381.135468,180.803711 331.956757,232.625854 
	C323.528625,241.507004 316.736023,251.932632 309.042389,261.528137 
	C308.085449,262.721649 306.243164,263.865540 304.788788,263.894043 
	C294.471405,264.096222 284.148163,264.001678 273.730957,264.001678 
	C310.139038,189.168961 402.647736,123.362862 514.366272,135.329285 
	C634.434204,148.190033 726.300659,246.477386 731.746094,366.183990 
	C737.230896,486.756500 655.355103,589.310730 543.055664,614.802246 
	C423.906738,641.848511 318.832214,577.807861 275.095428,494.008942 
	C286.252747,494.008942 297.160034,493.934814 308.062775,494.123016 
	C309.158142,494.141937 310.509125,495.554047 311.265991,496.648407 
	C345.288910,545.843811 391.505341,577.072388 450.370605,587.418640 
	C518.420349,599.379028 579.034546,581.836792 631.132080,536.254211 
	C653.214417,516.933350 670.070557,493.535370 682.591553,466.570160 
z"/>
<path fill="#C7230B" opacity="1.000000" stroke="none" 
	d="
M465.411957,566.679199 
	C420.297089,560.687622 382.258118,541.546936 350.883362,509.229187 
	C346.482849,504.696411 342.484161,499.773438 337.764038,494.424255 
	C339.609985,494.237000 340.787323,494.016785 341.965179,494.013824 
	C352.630707,493.986969 363.300446,493.840057 373.958710,494.119232 
	C376.352631,494.181915 379.228729,495.181519 381.001495,496.747528 
	C413.876984,525.789368 452.263763,539.375183 495.984833,537.874390 
	C568.779785,535.375610 633.069702,479.620544 646.065063,407.903687 
	C661.869019,320.687683 608.511475,239.256668 521.925964,220.728546 
	C467.615662,209.106873 419.456879,223.488922 378.331177,260.869202 
	C375.772156,263.195160 373.353485,264.135437 369.957977,264.075653 
	C358.816833,263.879517 347.670013,264.001923 335.128906,264.001923 
	C340.573425,257.638611 345.075073,251.784988 350.176300,246.511292 
	C383.268341,212.300293 423.386169,192.450638 470.912018,187.876205 
	C550.364807,180.228760 625.354614,223.629440 660.133606,294.571716 
	C693.524048,362.681549 681.569580,448.722656 630.327271,504.700928 
	C598.017517,539.996887 558.211365,561.095093 510.715088,566.534729 
	C495.947693,568.226074 480.819580,566.768066 465.411957,566.679199 
z"/>
<path fill="#343434" opacity="1.000000" stroke="none" 
	d="
M332.423035,382.605591 
	C344.165924,385.836365 355.586121,388.779633 366.920044,392.024261 
	C371.369629,393.298065 375.821716,394.865784 379.925842,396.974670 
	C386.492767,400.349121 386.563629,404.311462 380.485901,408.414581 
	C370.341248,415.263214 358.883636,416.113678 347.367371,414.390686 
	C339.392700,413.197632 331.598328,410.551697 323.866669,408.102570 
	C320.722382,407.106567 318.884216,407.293060 316.705658,409.982849 
	C303.042450,426.852539 286.318390,439.805389 266.003906,447.649658 
	C259.258240,450.254425 252.056290,452.855164 244.966324,453.152283 
	C228.868454,453.826874 212.572098,454.342224 196.608871,452.604004 
	C171.288605,449.846924 146.559738,423.940155 142.986084,398.680969 
	C136.491516,352.776306 163.418030,306.202972 207.282349,286.923950 
	C237.046738,273.842072 266.986725,273.725922 297.071075,285.200226 
	C303.035950,287.475250 308.385040,291.364868 314.787415,294.939484 
	C303.033783,305.691376 291.919617,315.858276 280.805450,326.025208 
	C281.315186,326.715363 281.824921,327.405518 282.334656,328.095673 
	C280.562317,326.963989 278.666138,325.986420 277.036743,324.676910 
	C260.190582,311.138092 242.292389,311.723572 224.419113,321.711670 
	C203.651398,333.317322 190.154083,350.391754 190.245377,375.239349 
	C190.296417,389.131531 194.489960,401.922607 206.784058,410.405792 
	C216.847977,417.350098 228.320847,417.076965 239.553925,415.457916 
	C266.939941,411.510620 283.717712,394.390198 294.094879,369.849609 
	C294.353821,369.237183 294.607849,368.620697 294.907959,368.028259 
	C295.128845,367.592163 295.421326,367.192291 295.840759,366.522736 
	C307.922668,371.831085 319.994263,377.134888 332.423035,382.605591 
z"/>
<path fill="#343434" opacity="1.000000" stroke="none" 
	d="
M476.002411,383.843414 
	C468.852936,384.211945 462.184509,384.398529 455.565613,385.071686 
	C454.024414,385.228455 451.637482,386.826965 451.364929,388.124512 
	C449.527863,396.869781 448.155518,405.712708 446.555115,414.972687 
	C475.628357,414.972687 504.082001,414.972687 532.626770,414.972687 
	C530.327759,427.550720 528.095581,439.762939 525.825195,452.184204 
	C480.074341,452.184204 434.378601,452.184204 388.682831,452.184204 
	C388.609863,451.942139 388.536896,451.700073 388.463928,451.458008 
	C393.205017,448.930237 398.116486,446.674255 402.657654,443.827637 
	C422.366150,431.473480 435.291046,414.537659 436.823608,390.608307 
	C437.751617,376.117706 431.722473,364.820007 419.431976,356.894623 
	C406.015930,348.243439 390.740875,344.866882 375.583099,341.038422 
	C367.703247,339.048187 359.926453,336.625824 352.166656,334.195892 
	C348.772827,333.133179 345.254395,331.431854 345.317078,327.264465 
	C345.383362,322.853668 348.825623,320.554535 352.575836,319.291656 
	C362.738617,315.869446 373.189972,316.468811 383.077820,319.615295 
	C393.306763,322.870331 403.100525,327.560608 412.927551,331.972931 
	C416.231171,333.456238 417.979980,333.118103 420.458344,330.331268 
	C429.415619,320.259033 438.767395,310.537689 448.112396,300.531616 
	C440.557190,288.816803 428.480621,283.566071 416.841797,277.394836 
	C463.684082,277.394836 510.526367,277.394836 558.231628,277.394836 
	C555.839661,290.149139 553.470154,302.783630 550.893616,316.522217 
	C540.479126,316.522217 530.372375,316.355988 520.273071,316.560944 
	C504.955750,316.871826 489.633484,317.231049 474.333221,317.977875 
	C465.034515,318.431732 462.826721,320.765289 461.555756,329.935699 
	C460.895508,334.699463 460.631989,339.518219 460.119293,345.070160 
	C471.673309,345.070160 482.974091,344.855896 494.263519,345.122772 
	C509.412262,345.480774 524.550476,346.264496 539.697266,346.739044 
	C543.010925,346.842834 544.094910,348.157135 543.592957,351.375153 
	C542.337891,359.422882 541.131897,367.481171 540.106201,375.560577 
	C539.548279,379.955383 537.193115,381.997620 532.912109,382.205414 
	C524.270447,382.624847 515.635010,383.240753 506.988770,383.481171 
	C496.830902,383.763641 486.664337,383.733398 476.002411,383.843414 
z"/>
<path fill="#FD392A" opacity="1.000000" stroke="none" 
	d="
M106.937668,436.997223 
	C114.199677,435.731201 119.155159,438.260986 123.054214,443.864227 
	C125.301483,447.093750 128.275162,449.817780 131.496078,453.409668 
	C95.329445,453.409668 60.046574,453.409668 23.711828,453.409668 
	C26.475777,447.838013 28.599577,443.030884 31.272181,438.551178 
	C31.914194,437.475067 34.376904,437.066681 36.005070,437.060272 
	C59.486176,436.968109 82.967758,436.997223 106.937668,436.997223 
z"/>
<path fill="#FD3C2D" opacity="1.000000" stroke="none" 
	d="
M105.516815,407.711243 
	C107.008759,412.617828 104.871216,414.798401 100.575340,415.079254 
	C93.607338,415.534790 86.626610,415.952667 79.646965,416.038818 
	C67.327400,416.190918 55.004604,416.081360 41.863293,416.081360 
	C44.359077,411.084167 46.490791,406.482605 48.982594,402.085052 
	C49.534988,401.110260 51.362965,400.338593 52.596489,400.348633 
	C67.248436,400.467926 81.899956,400.709961 96.549408,401.021851 
	C100.823524,401.112854 104.490303,402.359558 105.516815,407.711243 
z"/>
<path fill="#FD392A" opacity="1.000000" stroke="none" 
	d="
M116.010925,287.997620 
	C129.810196,287.997620 143.112015,287.997620 157.866409,287.997620 
	C149.139923,295.155609 143.434357,304.928375 132.028152,305.566467 
	C119.468880,306.269104 106.839943,305.726746 93.543091,305.726746 
	C96.144577,300.146057 98.545448,294.739532 101.237747,289.482269 
	C101.666878,288.644318 103.386948,288.120850 104.540154,288.064484 
	C108.190292,287.886017 111.854637,287.997986 116.010925,287.997620 
z"/>
<path fill="#FD3B2D" opacity="1.000000" stroke="none" 
	d="
M69.852020,364.350861 
	C79.565285,364.198944 88.869408,363.929993 98.157402,364.205170 
	C101.322983,364.298981 105.676201,363.966675 105.986900,369.082947 
	C106.300926,374.253937 103.552185,378.473816 98.665771,378.625366 
	C85.947639,379.019867 73.209152,378.758087 59.447968,378.758087 
	C62.453629,373.064545 62.110222,366.286224 69.852020,364.350861 
z"/>
<path fill="#FD3E2F" opacity="1.000000" stroke="none" 
	d="
M115.846466,327.822388 
	C116.955086,328.436798 118.299026,329.060242 118.263725,329.592102 
	C117.753792,337.275665 112.547531,342.555725 104.838989,342.774261 
	C95.934082,343.026703 87.016518,342.832977 77.854378,342.832977 
	C80.607697,329.715790 83.361977,327.248749 95.031265,327.191437 
	C101.833168,327.158020 108.637276,327.574677 115.846466,327.822388 
z"/>
<path fill="#CC3621" opacity="1.000000" stroke="none" 
	d="
M170.220535,481.814941 
	C168.338181,477.195831 166.589310,472.937714 164.840454,468.679596 
	C164.601440,468.693756 164.362427,468.707916 164.123413,468.722076 
	C164.123413,473.526489 164.214294,478.334045 164.047943,483.132690 
	C164.014053,484.110443 163.012802,485.054626 162.457489,486.014282 
	C161.930481,485.026154 160.965164,484.046112 160.946747,483.048584 
	C160.815170,475.918030 160.876465,468.783875 160.876465,461.567963 
	C164.067673,460.256042 165.484039,461.393646 166.531616,464.285614 
	C168.482529,469.671326 170.793961,474.926483 173.303436,481.091125 
	C175.832626,474.772614 177.800751,469.351288 180.213165,464.135498 
	C180.939545,462.565063 182.901291,461.566010 184.297104,460.305206 
	C184.789963,460.657593 185.282837,461.009949 185.775711,461.362335 
	C185.775711,468.805328 185.829193,476.249268 185.696503,483.689911 
	C185.682587,484.470734 184.570084,485.231964 183.967255,486.002289 
	C183.386032,485.210144 182.330292,484.434509 182.302048,483.623138 
	C182.140594,478.987000 182.223633,474.342316 181.450027,469.388733 
	C179.682098,473.629120 177.982269,477.899963 176.108093,482.092865 
	C175.480576,483.496704 174.408249,484.701691 173.539246,485.997589 
	C172.477509,484.723724 171.415771,483.449829 170.220535,481.814941 
z"/>
<path fill="#CD3721" opacity="1.000000" stroke="none" 
	d="
M400.899048,474.977570 
	C400.899048,478.786591 400.899048,482.103577 400.899048,485.805573 
	C394.931549,486.574646 394.769348,481.065521 392.449280,478.338165 
	C389.905640,475.348053 388.009277,471.807312 385.156006,467.483978 
	C385.156006,474.254272 385.156006,479.930054 385.156006,485.605804 
	C384.601837,485.843689 384.047699,486.081573 383.493530,486.319427 
	C382.860168,485.257019 381.702881,484.206604 381.678192,483.130249 
	C381.514496,475.984680 381.593414,468.833527 381.593414,461.127258 
	C387.052002,460.898132 387.554291,465.812073 389.729401,468.507538 
	C392.205139,471.575592 394.104675,475.108673 397.377838,478.345764 
	C397.377838,473.707184 397.261841,469.063629 397.460266,464.433563 
	C397.509277,463.290222 398.580444,462.190735 399.181763,461.071106 
	C399.753967,462.214172 400.739410,463.329010 400.819611,464.505585 
	C401.045349,467.818634 400.898834,471.157104 400.899048,474.977570 
z"/>
<path fill="#CE3C27" opacity="1.000000" stroke="none" 
	d="
M474.233276,485.847015 
	C473.818634,477.606537 473.818634,469.529907 473.818634,461.004211 
	C476.365692,461.004211 478.821930,461.001099 481.278137,461.004974 
	C484.954498,461.010712 488.562622,461.672119 489.906067,465.536865 
	C491.290375,469.519073 490.366547,473.154510 485.930634,475.288055 
	C487.776398,478.798859 489.520081,482.115448 491.372498,485.638916 
	C486.294037,487.015533 486.145721,482.623718 484.984772,480.298828 
	C483.266144,476.857208 481.392517,474.890961 476.913452,476.515961 
	C476.913452,478.615295 477.143311,480.937103 476.810883,483.175415 
	C476.657990,484.204956 475.403137,485.070801 474.233276,485.847015 
M484.618896,472.603455 
	C485.293701,470.584778 486.899384,467.043030 486.492432,466.794312 
	C483.824707,465.163788 480.722107,464.244873 477.169373,462.863342 
	C477.169373,467.241882 477.169373,469.987366 477.169373,472.887268 
	C479.553925,472.887268 481.682831,472.887268 484.618896,472.603455 
z"/>
<path fill="#CE3D28" opacity="1.000000" stroke="none" 
	d="
M217.784607,486.060211 
	C215.514435,486.061310 213.691772,486.061310 211.532822,486.061310 
	C211.532822,477.751068 211.532822,469.693878 211.532822,461.650482 
	C221.725296,459.593658 227.846130,462.576172 229.104767,470.153320 
	C230.688889,479.689941 227.000412,485.085876 217.784607,486.060211 
M220.761581,482.897461 
	C225.753387,479.906525 227.545120,474.521362 225.424225,468.813751 
	C223.582809,463.858185 219.684937,463.555817 215.128693,464.266205 
	C215.128693,470.582458 215.128693,476.779724 215.128693,483.005768 
	C216.937973,483.005768 218.422119,483.005768 220.761581,482.897461 
z"/>
<path fill="#CC341E" opacity="1.000000" stroke="none" 
	d="
M353.796143,485.999268 
	C351.731964,483.977722 349.764038,482.093170 348.419708,479.837036 
	C346.047607,475.856171 346.206787,475.761322 341.124847,476.417206 
	C340.640564,479.565063 340.186981,482.713989 339.578461,485.832703 
	C339.550232,485.977295 338.135193,485.851257 337.196289,485.851257 
	C337.196289,477.619873 337.196289,469.670441 337.196289,461.024139 
	C339.566528,461.024139 341.824005,461.046753 344.080872,461.019135 
	C348.068787,460.970367 351.975983,461.347565 353.646912,465.695526 
	C355.263794,469.902771 353.403259,473.108612 350.129211,475.278870 
	C351.530396,478.982727 352.851837,482.475830 353.796143,485.999268 
M346.128784,473.115692 
	C349.503601,472.750885 351.553131,470.782562 350.635742,467.526245 
	C349.074463,461.984131 344.515686,464.335266 340.708130,464.148499 
	C340.708130,467.231354 340.708130,469.961884 340.708130,473.150757 
	C342.386414,473.150757 343.827515,473.150757 346.128784,473.115692 
z"/>
<path fill="#CC341E" opacity="1.000000" stroke="none" 
	d="
M448.397919,473.107544 
	C449.583923,464.155273 452.743713,460.591217 458.979828,460.823700 
	C462.809845,460.966461 465.777130,462.643188 467.189301,466.267120 
	C469.411377,471.969635 469.557739,477.730988 465.957855,482.936890 
	C463.615967,486.323456 459.890259,486.822052 456.067505,486.048981 
	C451.328949,485.090698 449.092743,481.336517 448.397919,473.107544 
M451.977905,470.951416 
	C452.154205,473.577637 451.575928,476.615967 452.721252,478.712921 
	C453.843018,480.766693 456.772156,483.111450 458.812073,483.026459 
	C460.857788,482.941223 463.318359,480.334564 464.591736,478.225891 
	C465.571777,476.603027 465.130432,474.035736 465.078094,471.894348 
	C464.983368,468.017609 464.088440,464.511475 459.432465,463.867676 
	C454.757385,463.221222 452.909180,466.116730 451.977905,470.951416 
z"/>
<path fill="#CE3D28" opacity="1.000000" stroke="none" 
	d="
M427.657227,461.596619 
	C431.281372,461.185242 434.623474,460.882233 437.925598,461.124359 
	C442.555603,461.463745 445.290100,464.639343 445.203644,469.014282 
	C445.118805,473.306183 442.644806,475.808350 437.898468,476.175751 
	C435.760742,476.341217 433.599548,476.203766 430.801849,476.203766 
	C430.801849,478.875122 430.997711,481.173828 430.708618,483.409821 
	C430.587463,484.346893 429.438293,485.151031 428.756470,486.015594 
	C428.237152,485.155426 427.276459,484.299561 427.268005,483.434418 
	C427.198120,476.273315 427.304382,469.110504 427.657227,461.596619 
M432.399414,473.532166 
	C433.893066,473.513153 435.391876,473.566223 436.879303,473.460022 
	C439.932739,473.242096 442.001373,471.847321 441.829254,468.499847 
	C441.658203,465.171997 439.462921,463.998535 436.415619,463.985199 
	C434.649811,463.977448 432.883942,463.983795 430.503815,463.983795 
	C430.864868,467.507416 431.161255,470.399963 432.399414,473.532166 
z"/>
<path fill="#CF422D" opacity="1.000000" stroke="none" 
	d="
M206.538818,463.677612 
	C202.660797,464.017975 199.178574,464.104706 195.696976,464.211212 
	C195.565643,464.215210 195.440186,464.410400 195.122452,464.673309 
	C195.122452,466.776917 195.122452,469.037323 195.122452,471.905121 
	C198.682343,471.905121 202.065231,471.905121 205.448120,471.905121 
	C205.532349,472.570953 205.616592,473.236755 205.700821,473.902588 
	C202.335236,474.290955 198.969635,474.679321 195.256348,475.107819 
	C195.256348,477.512238 195.256348,480.071655 195.256348,482.782990 
	C199.355423,483.144958 203.364120,483.498962 207.372818,483.852966 
	C207.304535,484.459503 207.236267,485.066010 207.167984,485.672516 
	C202.141144,485.672516 197.114288,485.672516 191.702484,485.672516 
	C191.702484,477.781647 191.702484,469.736847 191.702484,461.020294 
	C196.296204,461.020294 200.883362,460.943298 205.460144,461.126099 
	C205.981491,461.146942 206.444626,462.625061 206.538818,463.677612 
z"/>
<path fill="#CC341E" opacity="1.000000" stroke="none" 
	d="
M421.825745,464.315674 
	C422.111389,465.801758 422.173828,466.963776 422.236267,468.125824 
	C421.228424,467.522278 420.267853,466.812775 419.202698,466.337708 
	C417.111755,465.405121 415.005646,464.145569 412.819336,463.939728 
	C411.723724,463.836548 409.686615,465.605560 409.454498,466.796600 
	C409.232697,467.934845 410.486633,469.938660 411.648712,470.642151 
	C413.739319,471.907715 416.299316,472.366730 418.566589,473.379150 
	C421.752106,474.801636 424.199585,477.462646 422.777649,480.786316 
	C421.809387,483.049591 418.947693,485.361633 416.513000,485.968781 
	C410.537170,487.458893 406.777557,484.926483 404.671936,477.924896 
	C406.738129,479.329834 407.709473,480.205414 408.844879,480.716980 
	C411.109589,481.737366 413.423523,483.059937 415.798737,483.252869 
	C417.015991,483.351746 419.284363,481.414673 419.472748,480.157288 
	C419.654907,478.941345 418.061890,476.962341 416.738312,476.132507 
	C414.671051,474.836456 411.726868,474.732269 409.979889,473.188660 
	C408.126709,471.551147 405.826843,468.465729 406.283936,466.661713 
	C406.854889,464.408325 409.915283,461.474365 412.128784,461.266968 
	C415.174927,460.981598 418.434448,462.974640 421.825745,464.315674 
z"/>
<path fill="#CC3621" opacity="1.000000" stroke="none" 
	d="
M280.593384,471.294434 
	C282.491516,476.260315 284.223267,480.876099 285.954987,485.491852 
	C285.572998,485.820740 285.190979,486.149628 284.808990,486.478516 
	C283.759918,485.354309 282.076355,484.376221 281.777771,483.079224 
	C280.782745,478.757294 277.577209,479.743195 274.726410,479.610321 
	C271.972168,479.481964 269.489807,479.382019 268.687073,483.057617 
	C268.402893,484.359009 266.703735,485.351379 265.650574,486.484833 
	C265.225006,486.147339 264.799469,485.809814 264.373932,485.472321 
	C267.203644,478.100677 269.994659,470.713654 272.912262,463.376953 
	C273.274658,462.465698 274.308990,461.821625 275.031982,461.053772 
	C275.886810,461.877838 277.054230,462.552429 277.533966,463.555817 
	C278.671753,465.935699 279.483490,468.471527 280.593384,471.294434 
M273.695160,469.402435 
	C272.863739,471.698486 272.032318,473.994537 271.083466,476.614899 
	C273.926636,476.614899 276.316101,476.614899 279.277069,476.614899 
	C277.968933,472.990845 276.799194,469.750153 275.327881,465.674103 
	C274.564484,467.281219 274.227631,467.990326 273.695160,469.402435 
z"/>
<path fill="#CC3620" opacity="1.000000" stroke="none" 
	d="
M367.052490,479.618591 
	C363.648956,479.239563 361.486298,479.833527 360.688629,483.267822 
	C360.405518,484.486572 358.885345,485.418030 357.929932,486.480621 
	C357.462006,486.147705 356.994080,485.814789 356.526184,485.481873 
	C359.376129,477.961395 362.192749,470.427887 365.126404,462.940216 
	C365.427826,462.170929 366.768158,461.025543 367.045044,461.169922 
	C368.059662,461.698853 369.222412,462.540894 369.626923,463.547363 
	C372.528168,470.765656 375.256470,478.053406 377.157166,486.368011 
	C376.095062,485.485901 374.317780,484.752167 374.098541,483.695251 
	C373.285370,479.775208 370.781067,479.221985 367.052490,479.618591 
M367.913147,467.001831 
	C367.828369,466.861023 367.765106,466.697815 367.650696,466.587769 
	C367.582275,466.521912 367.343964,466.501099 367.333954,466.524658 
	C365.961304,469.753723 364.602692,472.988770 363.054962,476.672058 
	C366.214417,476.672058 368.475952,476.672058 371.352661,476.672058 
	C370.192657,473.462555 369.152435,470.584442 367.913147,467.001831 
z"/>
<path fill="#CC331E" opacity="1.000000" stroke="none" 
	d="
M252.982635,483.574341 
	C255.031967,482.379944 256.669281,481.210266 258.275055,479.998749 
	C259.237854,479.272339 260.151367,478.480469 262.095398,476.896240 
	C261.601776,482.479034 259.583191,485.145691 255.594666,486.013611 
	C250.976532,487.018555 246.761353,486.067566 244.556458,481.522217 
	C241.965179,476.180389 242.037186,470.564697 244.802322,465.243713 
	C246.837814,461.326782 250.515182,460.457581 254.590576,460.913422 
	C259.008698,461.407654 261.263428,464.134247 261.198578,469.355682 
	C260.170990,468.501160 258.892731,467.819366 258.162689,466.759827 
	C255.945435,463.541809 251.172623,462.035156 249.504791,464.908905 
	C247.520782,468.327454 246.869415,472.800720 246.643570,476.872620 
	C246.450012,480.362274 248.423737,483.249023 252.982635,483.574341 
z"/>
<path fill="#CF422E" opacity="1.000000" stroke="none" 
	d="
M324.945770,460.987701 
	C328.163025,460.987701 330.899994,460.987701 333.636963,460.987701 
	C333.666260,461.776398 333.695557,462.565063 333.724854,463.353760 
	C331.327881,463.684906 328.930908,464.016022 325.675415,464.465759 
	C325.675415,470.054749 325.800018,475.960602 325.584747,481.854034 
	C325.533173,483.266174 324.350830,484.636993 323.688568,486.026825 
	C323.147491,484.700500 322.179291,483.386932 322.139313,482.045685 
	C321.966522,476.248779 322.065338,470.443756 322.065338,464.610687 
	C319.158691,464.060394 316.525299,463.561859 313.891907,463.063293 
	C314.009735,462.371429 314.127563,461.679565 314.245392,460.987701 
	C317.652100,460.987701 321.058777,460.987701 324.945770,460.987701 
z"/>
<path fill="#D14733" opacity="1.000000" stroke="none" 
	d="
M289.303223,481.759369 
	C289.303619,475.647339 289.204926,470.005280 289.387939,464.372437 
	C289.424683,463.241394 290.532440,462.145172 291.146393,461.032898 
	C291.746338,462.149811 292.833038,463.253021 292.864960,464.385956 
	C293.036682,470.476715 292.946167,476.574860 292.946167,482.825500 
	C297.169312,483.121185 300.934692,483.384827 304.700073,483.648438 
	C304.657867,484.431580 304.615662,485.214722 304.573456,485.997864 
	C299.941498,485.997864 295.301910,486.120117 290.687927,485.832153 
	C290.153564,485.798767 289.761414,483.487701 289.303223,481.759369 
z"/>
<path fill="#CA2F18" opacity="1.000000" stroke="none" 
	d="
M495.209900,461.039124 
	C500.779663,461.290497 505.998260,460.499298 510.999420,461.502136 
	C510.977051,462.198608 510.954712,462.895081 510.932373,463.591553 
	C508.450500,463.793884 505.968597,463.996185 502.960358,464.241425 
	C502.960358,470.538422 503.032104,476.813934 502.885529,483.084381 
	C502.862640,484.063812 501.845551,485.020050 501.288147,485.987030 
	C500.747620,484.998596 499.762939,484.020660 499.739227,483.019989 
	C499.594055,476.890289 499.666565,470.755463 499.666565,464.231598 
	C497.749329,464.129608 496.131104,464.179962 494.568146,463.910095 
	C493.603882,463.743591 492.723907,463.089050 491.806091,462.653625 
	C492.781494,462.115601 493.756897,461.577576 495.209900,461.039124 
z"/>
<path fill="#CA2B15" opacity="1.000000" stroke="none" 
	d="
M237.696289,485.398804 
	C236.476059,485.030640 234.600235,484.289337 234.570908,483.481049 
	C234.331390,476.879974 234.347977,470.263916 234.530273,463.659149 
	C234.558258,462.645416 235.832748,461.666107 236.530746,460.670868 
	C236.985962,460.879150 237.441162,461.087463 237.896378,461.295746 
	C237.896378,469.195374 237.896378,477.095001 237.696289,485.398804 
z"/>
<path fill="#FEFCFB" opacity="1.000000" stroke="none" 
	d="
M484.215332,472.745361 
	C481.682831,472.887268 479.553925,472.887268 477.169373,472.887268 
	C477.169373,469.987366 477.169373,467.241882 477.169373,462.863342 
	C480.722107,464.244873 483.824707,465.163788 486.492432,466.794312 
	C486.899384,467.043030 485.293701,470.584778 484.215332,472.745361 
z"/>
<path fill="#FFFDFD" opacity="1.000000" stroke="none" 
	d="
M220.333923,482.951599 
	C218.422119,483.005768 216.937973,483.005768 215.128693,483.005768 
	C215.128693,476.779724 215.128693,470.582458 215.128693,464.266205 
	C219.684937,463.555817 223.582809,463.858185 225.424225,468.813751 
	C227.545120,474.521362 225.753387,479.906525 220.333923,482.951599 
z"/>
<path fill="#FBEEEC" opacity="1.000000" stroke="none" 
	d="
M345.698700,473.133240 
	C343.827515,473.150757 342.386414,473.150757 340.708130,473.150757 
	C340.708130,469.961884 340.708130,467.231354 340.708130,464.148499 
	C344.515686,464.335266 349.074463,461.984131 350.635742,467.526245 
	C351.553131,470.782562 349.503601,472.750885 345.698700,473.133240 
z"/>
<path fill="#FEFCFB" opacity="1.000000" stroke="none" 
	d="
M452.017151,470.524353 
	C452.909180,466.116730 454.757385,463.221222 459.432465,463.867676 
	C464.088440,464.511475 464.983368,468.017609 465.078094,471.894348 
	C465.130432,474.035736 465.571777,476.603027 464.591736,478.225891 
	C463.318359,480.334564 460.857788,482.941223 458.812073,483.026459 
	C456.772156,483.111450 453.843018,480.766693 452.721252,478.712921 
	C451.575928,476.615967 452.154205,473.577637 452.017151,470.524353 
z"/>
<path fill="#FDF7F6" opacity="1.000000" stroke="none" 
	d="
M431.928528,473.412354 
	C431.161255,470.399963 430.864868,467.507416 430.503815,463.983795 
	C432.883942,463.983795 434.649811,463.977448 436.415619,463.985199 
	C439.462921,463.998535 441.658203,465.171997 441.829254,468.499847 
	C442.001373,471.847321 439.932739,473.242096 436.879303,473.460022 
	C435.391876,473.566223 433.893066,473.513153 431.928528,473.412354 
z"/>
<path fill="#F9E9E7" opacity="1.000000" stroke="none" 
	d="
M273.792969,469.050934 
	C274.227631,467.990326 274.564484,467.281219 275.327881,465.674103 
	C276.799194,469.750153 277.968933,472.990845 279.277069,476.614899 
	C276.316101,476.614899 273.926636,476.614899 271.083466,476.614899 
	C272.032318,473.994537 272.863739,471.698486 273.792969,469.050934 
z"/>
<path fill="#FAE9E7" opacity="1.000000" stroke="none" 
	d="
M368.012665,467.354065 
	C369.152435,470.584442 370.192657,473.462555 371.352661,476.672058 
	C368.475952,476.672058 366.214417,476.672058 363.054962,476.672058 
	C364.602692,472.988770 365.961304,469.753723 367.333954,466.524658 
	C367.343964,466.501099 367.582275,466.521912 367.650696,466.587769 
	C367.765106,466.697815 367.828369,466.861023 368.012665,467.354065 
z"/>
</svg>